@startuml
'https://plantuml.com/class-diagram


interface SomeInterface {
    {abstract} +init()
}
interface SubInterface {
    {abstract} +getName() : String
}

SomeInterface <|-- SubInterface

abstract class AbstractClass {
    -name: String
    +getName() : String
    {abstract} +convert(x:int) : int
}

SubInterface <|.. AbstractClass

class ConcreteClass {
    -factor: float
    +init()
    +convert(x:int) : int
}

AbstractClass <|-- ConcreteClass
AbstractClass -right- Helper

interface Helper {
    {abstract} +calculate(x:int) : int
}
class HelperImpl extends Helper {
    +calculate(x:int) : int
}


@enduml